<svg width="13" height="13" viewBox="0 0 13 13" fill="none" xmlns="http://www.w3.org/2000/svg">
<path fill-rule="evenodd" clip-rule="evenodd" d="M6.5 13C10.0899 13 13 10.0899 13 6.5C13 2.91015 10.0899 0 6.5 0C2.91015 0 0 2.91015 0 6.5C0 10.0899 2.91015 13 6.5 13ZM3.19984 9.80205C2.93531 9.53976 2.93349 9.11269 3.19578 8.84816L5.50997 6.51418L3.21386 4.32599C2.94419 4.06899 2.93391 3.64204 3.19091 3.37236C3.44791 3.10269 3.87487 3.09241 4.14454 3.34941L6.46 5.55604L8.79655 3.19951C9.05884 2.93498 9.48591 2.93316 9.75045 3.19545C10.015 3.45774 10.0168 3.88482 9.75451 4.14935L7.43677 6.4869L9.90299 8.83722C10.1727 9.09422 10.1829 9.52117 9.92594 9.79085C9.66894 10.0605 9.24199 10.0708 8.97231 9.8138L6.48674 7.44505L4.15374 9.79799C3.89145 10.0625 3.46437 10.0643 3.19984 9.80205Z" fill="#FB451D"/>
</svg>
