<svg width="136" height="130" viewBox="0 0 136 130" fill="none" xmlns="http://www.w3.org/2000/svg">
<path d="M85.7858 7.50557C95.5397 1.74865 108.448 -2.68228 118.785 1.9001C128.431 6.17573 132.08 18.8487 134.744 29.208C137.215 38.8185 135.398 48.9329 133.38 58.6524C131.682 66.831 131.393 78.1043 123.887 81.4966C113.07 86.3851 93.7262 67.7804 88.8726 78.7672C81.7195 94.959 119.846 126.499 102.662 129.541C84.3243 132.788 92.7835 82.475 74.2026 81.3641C56.9319 80.3315 65.0862 123.791 47.9582 126.271C34.0753 128.281 63.4158 94.6512 53.7314 84.3285C43.7502 73.6893 23.9274 93.1893 10.9156 86.7865C1.75467 82.2786 1.06141 68.3516 0.278155 58.0253C-0.547995 47.1333 0.189355 35.1657 6.32005 26.199C12.4488 17.2352 22.8605 8.28102 33.5349 9.38455C47.0866 10.7856 53.3759 32.9606 66.9889 32.4711C77.3967 32.0968 76.7765 12.823 85.7858 7.50557Z" fill="#FF007F"/>
</svg>
